<?xml version="1.0" encoding="UTF-8" standalone="no"?>
<!-- Generator: Adobe Illustrator 19.1.0, SVG Export Plug-In . SVG Version: 6.00 Build 0)  -->

<svg
   xmlns:dc="http://purl.org/dc/elements/1.1/"
   xmlns:cc="http://creativecommons.org/ns#"
   xmlns:rdf="http://www.w3.org/1999/02/22-rdf-syntax-ns#"
   xmlns:svg="http://www.w3.org/2000/svg"
   xmlns="http://www.w3.org/2000/svg"
   xmlns:sodipodi="http://sodipodi.sourceforge.net/DTD/sodipodi-0.dtd"
   xmlns:inkscape="http://www.inkscape.org/namespaces/inkscape"
   version="1.1"
   id="Layer_1"
   x="0px"
   y="0px"
   viewBox="0 0 216.2 40.8"
   xml:space="preserve"
   inkscape:version="0.91 r13725"
   sodipodi:docname="codestar-logo-notext.svg"
   width="216.2"
   height="40.799999"><metadata
     id="metadata121"><rdf:RDF><cc:Work
         rdf:about=""><dc:format>image/svg+xml</dc:format><dc:type
           rdf:resource="http://purl.org/dc/dcmitype/StillImage" /><dc:title></dc:title></cc:Work></rdf:RDF></metadata><defs
     id="defs119" /><sodipodi:namedview
     pagecolor="#230000"
     bordercolor="#666666"
     borderopacity="1"
     objecttolerance="10"
     gridtolerance="10"
     guidetolerance="10"
     inkscape:pageopacity="0"
     inkscape:pageshadow="2"
     inkscape:window-width="1920"
     inkscape:window-height="1005"
     id="namedview117"
     showgrid="false"
     inkscape:zoom="5.7354302"
     inkscape:cx="100.82304"
     inkscape:cy="37.191025"
     inkscape:window-x="0"
     inkscape:window-y="1"
     inkscape:window-maximized="1"
     inkscape:current-layer="Layer_1" /><style
     type="text/css"
     id="style3">
	.st0{fill:#F08300;}
	.st1{fill:#FFFFFF;opacity:0.45;}
	.st2{opacity:0.45;}
	.st3{fill:#FFFFFF;opacity:0.70;}
</style><g
     id="g5"
     transform="translate(-0.06164374,-1.3219043)"><g
       id="g7"><circle
         class="st0"
         cx="110.5"
         cy="38"
         r="2.9000001"
         id="circle9"
         style="fill:#f08300" /><path
         class="st0"
         d="m 176.4,31.8 -2.3,-1.2 2.3,-1.2 c 0.4,-0.2 0.5,-0.6 0.3,-1 l -0.5,-0.9 c -0.2,-0.4 -0.6,-0.5 -1,-0.3 l -2.7,1.4 0,-3 c 0,-0.4 -0.3,-0.7 -0.7,-0.7 l -1.1,0 c -0.4,0 -0.7,0.3 -0.7,0.7 l 0,3 -2.7,-1.4 c -0.4,-0.2 -0.8,0 -1,0.3 l -0.5,0.9 c -0.2,0.4 0,0.8 0.3,1 l 2.3,1.2 -2.3,1.2 c -0.4,0.2 -0.5,0.6 -0.3,1 l 0.5,0.9 c 0.2,0.4 0.6,0.5 1,0.3 l 2.7,-1.4 0,3 c 0,0.4 0.3,0.7 0.7,0.7 l 1.1,0 c 0.4,0 0.7,-0.3 0.7,-0.7 l 0,-3 2.7,1.4 c 0.4,0.2 0.8,0 1,-0.3 l 0.5,-0.9 c 0.2,-0.4 0,-0.8 -0.3,-1 z"
         id="path11"
         inkscape:connector-curvature="0"
         style="fill:#f08300" /><path
         class="st0"
         d="m 13.8,5.5 1.9,0 c 2.1,0 4,1 5.6,3 0.3,0.5 1,0.5 1.5,0.3 L 24.3,8 C 24.7,7.8 24.9,7.5 25,7.2 25.1,6.9 25,6.5 24.8,6.2 24.2,5.2 23.3,4.4 22.4,3.8 20.6,2.5 18.3,1.8 15.6,1.8 l -1.9,0 C 7.3,1.8 3.1,5.8 3.1,11.9 l 0,19.6 c 0,6.1 4.3,10.1 10.6,10.1 l 1.9,0 c 2.9,0 5.3,-0.7 7.1,-2.2 0.8,-0.6 1.5,-1.4 2.1,-2.3 0.2,-0.3 0.3,-0.6 0.2,-1 -0.1,-0.4 -0.4,-0.7 -0.8,-0.9 l -1.5,-0.7 c -0.6,-0.3 -1.1,-0.2 -1.5,0.3 -1.4,2 -3.3,3 -5.5,3 l -1.9,0 C 10.3,37.8 7.5,35 7.5,31.4 l 0,-19.6 c 0,-3.6 2.6,-6.3 6.3,-6.3 z"
         id="path13"
         inkscape:connector-curvature="0"
         style="fill:#f08300" /><path
         class="st1"
         d="m 151.3,8.7 -1.8,0 c -0.8,0 -1.3,0.5 -1.3,1.3 l 0,29.7 c 0,0.8 0.5,1.3 1.3,1.3 l 1.8,0 c 0.8,0 1.3,-0.5 1.3,-1.3 l 0,-29.8 c 0,-0.8 -0.5,-1.2 -1.3,-1.2 z"
         id="path15"
         inkscape:connector-curvature="0"
         style="opacity:0.45;fill:#ffffff" /><path
         class="st1"
         d="m 161.1,4.8 0,-1.1 c 0,-0.8 -0.5,-1.3 -1.3,-1.3 l -19,0 c -0.8,0 -1.3,0.5 -1.3,1.3 l 0,1.1 c 0,0.8 0.5,1.3 1.3,1.3 l 19,0 c 0.9,0 1.3,-0.5 1.3,-1.3 z"
         id="path17"
         inkscape:connector-curvature="0"
         style="opacity:0.45;fill:#ffffff" /><path
         class="st0"
         d="M 91.3,19.5 C 90.5,19.5 90,20 90,20.8 l 0,1.1 c 0,0.8 0.5,1.3 1.3,1.3 l 9,0 c 0.8,0 1.3,-0.5 1.3,-1.3 l 0,-1.1 c 0,-0.8 -0.5,-1.3 -1.3,-1.3 l -9,0 z"
         id="path19"
         inkscape:connector-curvature="0"
         style="fill:#f08300" /><path
         class="st1"
         d="m 128.4,19.3 -1.2,-0.5 c -3.1,-1.5 -6.6,-3.1 -6.6,-6.9 0,-3.8 2.4,-6.3 6.2,-6.3 l 0.9,0 c 2.1,0 4.2,1.1 5.6,3 0.3,0.5 0.9,0.6 1.6,0.3 l 1.5,-0.8 c 0.4,-0.2 0.6,-0.5 0.7,-0.8 0.1,-0.2 0.1,-0.6 -0.2,-1 -0.8,-1.1 -1.8,-2.1 -2.8,-2.7 -1.7,-1.1 -3.9,-1.7 -6.3,-1.7 l -0.9,0 c -6.3,0 -10.6,4 -10.6,10.1 0,6.8 4.8,9 9.9,11.4 l 0.6,0.3 c 3.7,1.7 7.5,3.5 7.5,7.9 0,3.7 -2.7,6.4 -6.4,6.4 l -2.5,0 c -2.1,0 -4,-1 -5.6,-3 -0.4,-0.5 -0.9,-0.6 -1.5,-0.4 l -1.6,0.9 c -0.4,0.2 -0.6,0.5 -0.7,0.9 -0.1,0.4 0,0.7 0.2,1 0.7,1 1.7,1.9 2.7,2.6 1.8,1.2 4,1.8 6.4,1.8 l 2.5,0 c 6.5,0 10.9,-4.1 10.9,-10.1 -0.1,-7.6 -4.8,-9.8 -10.3,-12.4 z"
         id="path21"
         inkscape:connector-curvature="0"
         style="opacity:0.45;fill:#ffffff" /><path
         class="st0"
         d="m 69.2,2.4 -11.3,0 c -0.8,0 -1.3,0.5 -1.3,1.3 l 0,36 c 0,0.8 0.5,1.3 1.3,1.3 l 11.2,0 c 6.6,0 10.8,-4.2 10.8,-10.8 L 79.9,13 C 80,6.6 75.7,2.4 69.2,2.4 Z m 6.4,28.4 c 0,3.7 -2.8,6.4 -6.4,6.4 l -7.3,0 c -0.5,0 -0.8,-0.3 -0.8,-0.8 l 0,-29.5 c 0,-0.5 0.3,-0.8 0.8,-0.8 l 7.3,0 c 3.6,0 6.4,2.8 6.4,6.3 l 0,18.4 z"
         id="path23"
         inkscape:connector-curvature="0"
         style="fill:#f08300" /><path
         class="st0"
         d="m 88.2,6.1 15,0 c 0.8,0 1.3,-0.5 1.3,-1.3 l 0,-1.1 c 0,-0.8 -0.5,-1.3 -1.3,-1.3 l -18.9,0 C 83.5,2.4 83,2.9 83,3.7 l 0,36 c 0,0.8 0.5,1.3 1.3,1.3 l 18.9,0 c 0.8,0 1.3,-0.5 1.3,-1.3 l 0,-1.2 c 0,-0.8 -0.5,-1.3 -1.3,-1.3 l -15,0 c -0.5,0 -0.8,-0.3 -0.8,-0.8 l 0,-29.5 c 0,-0.5 0.3,-0.8 0.8,-0.8 z"
         id="path25"
         inkscape:connector-curvature="0"
         style="fill:#f08300" /><path
         class="st1"
         d="m 213.3,13.6 0,-1 c 0,-6.3 -4.2,-10.1 -10.8,-10.1 l -11.2,0 C 190.5,2.5 190,3 190,3.8 l 0,36 c 0,0.8 0.5,1.3 1.3,1.3 l 1.8,0 c 0.8,0 1.3,-0.5 1.3,-1.3 l 0,-32.9 c 0,-0.5 0.3,-0.8 0.8,-0.8 l 7.3,0 c 3.8,0 6.4,2.5 6.4,6.3 l 0,0.6 c 0,3.7 -2.8,6.6 -6.4,6.6 l -4.2,0 c -0.8,0 -1.3,0.5 -1.3,1.3 l 0,1.1 c 0,1.3 1.3,1.3 1.3,1.3 l 4.5,0 5.8,16.8 c 0.1,0.5 0.6,0.9 1.2,0.9 l 2.1,0 c 0.6,0 1,-0.3 1.1,-0.5 0.1,-0.2 0.3,-0.6 0.1,-1.2 l -5.9,-17.1 c 3.5,-1.5 6.1,-5 6.1,-8.6 z"
         id="path27"
         inkscape:connector-curvature="0"
         style="opacity:0.45;fill:#ffffff" /><g
         id="g29"><path
           class="st1"
           d="m 186.9,39.3 0,0 -13.6,-36 c -0.2,-0.6 -0.6,-0.9 -1.2,-0.9 l -1.5,0 c -0.6,0 -1,0.4 -1.2,0.9 l -13.6,36 0,0 c -0.1,0.6 0,0.9 0.2,1.1 0.2,0.2 0.5,0.5 1.1,0.5 l 1.9,0 c 0.6,0 1,-0.4 1.2,-0.9 0,0 0,-0.1 0.1,-0.1 0.9,-2.2 10.4,-27.5 10.5,-27.8 0.1,-0.4 0.3,-0.5 0.6,-0.5 0.3,0 0.5,0.1 0.7,0.5 0.2,0.4 10.2,27.1 10.5,28 0.2,0.6 0.6,0.9 1.2,0.9 l 2,0 c 0.6,0 0.9,-0.2 1.1,-0.5 0,-0.3 0.1,-0.7 0,-1.2 z"
           id="path31"
           inkscape:connector-curvature="0"
           style="opacity:0.45;fill:#ffffff" /></g><g
         id="g33"><path
           class="st0"
           d="m 38.2,1.8 0,0 c -6.4,0 -10.7,4 -10.7,10.1 l 0,8 -1.2,1.5 1.2,1.5 0,8.5 c 0,6.1 4.3,10.1 10.7,10.1 0.6,0 1,-0.4 1,-1.1 l 0,-1.6 c 0,-0.6 -0.4,-1.1 -1,-1.1 l -0.1,0 c -3.4,0 -6.3,-3 -6.3,-6.4 l 0,-8.8 -1,-1.2 1,-1.2 0,-8.3 c 0,-3.5 2.8,-6.3 6.4,-6.3 0,0 0,0 0,0 0,0 1,0 1,-1.1 l 0,-1.6 c 0,-0.6 -0.4,-1 -1,-1 z"
           id="path35"
           inkscape:connector-curvature="0"
           style="fill:#f08300" /><path
           class="st0"
           d="m 53.6,19.8 0,-8 C 53.6,5.8 49.3,1.7 42.9,1.7 l 0,0 c -0.6,0 -1,0.5 -1,1.1 l 0,1.6 c 0,1.1 1,1.1 1,1.1 0,0 0,0 0,0 3.6,0 6.4,2.8 6.4,6.3 l 0,8.3 1,1.2 -1,1.2 0,8.8 c 0,3.4 -2.9,6.4 -6.3,6.4 l -0.1,0 c -0.6,0 -1,0.5 -1,1.1 l 0,1.6 c 0,0.6 0.4,1.1 1,1.1 6.4,0 10.7,-4.1 10.7,-10.1 l 0,-8.5 1.2,-1.5 -1.2,-1.6 z"
           id="path37"
           inkscape:connector-curvature="0"
           style="fill:#f08300" /></g></g><g
       id="g39"><g
         id="g41" /></g></g></svg>